# .PCD v0.7 - Point Cloud Data file format
VERSION 0.7
FIELDS x y z
SIZE 4 4 4
TYPE F F F
COUNT 1 1 1
WIDTH 176
HEIGHT 1
VIEWPOINT 0 0 0 1 0 0 0
POINTS 176
DATA ascii
-0.046649575 -0.57107401 -0.057801969
-0.046649575 -0.57107401 -0.057801969
-0.046649575 -0.57107401 -0.057801969
-0.046649575 -0.57107401 -0.057801969
-0.47729054 -0.31701028 -0.057801977
-0.47729054 -0.31701028 -0.057801977
-0.47729054 -0.31701028 -0.057801977
-0.47729054 -0.31701028 -0.057801977
-0.0035854876 -0.59648037 -0.057801969
-0.089713693 -0.54566765 -0.057801984
-0.0035854876 -0.59648037 -0.057801969
-0.089713693 -0.54566765 -0.057801984
-0.43422642 -0.34241664 -0.057801962
-0.52035463 -0.29160386 -0.057801977
-0.43422642 -0.34241664 -0.057801962
-0.52035463 -0.29160386 -0.057801977
-0.066222608 -0.60425049 -0.089680217
-0.066222608 -0.60425049 -0.089680217
-0.027076572 -0.53789759 -0.025923751
-0.027076572 -0.53789759 -0.025923751
-0.49686351 -0.35018671 -0.089680187
-0.49686351 -0.35018671 -0.089680187
-0.45771751 -0.2838338 -0.025923736
-0.45771751 -0.2838338 -0.025923736
-0.023158491 -0.62965685 -0.089680202
-0.10928667 -0.57884407 -0.089680187
0.015987545 -0.56330395 -0.025923736
-0.0701406 -0.51249123 -0.025923751
-0.45379946 -0.3755931 -0.089680202
-0.53992766 -0.32478032 -0.089680187
-0.41465345 -0.30924016 -0.025923736
-0.5007816 -0.25842741 -0.025923736
-0.085795552 -0.63742697 -0.12155845
-0.085795552 -0.63742697 -0.12155845
-0.0075035691 -0.50472111 0.0059544817
-0.0075035691 -0.50472111 0.0059544817
-0.51643652 -0.38336319 -0.12155841
-0.51643652 -0.38336319 -0.12155841
-0.43814451 -0.25065735 0.0059544742
-0.43814451 -0.25065735 0.0059544742
-0.042731464 -0.66283333 -0.12155844
-0.12885964 -0.61202055 -0.12155841
0.035560548 -0.53012753 0.0059544519
-0.050567657 -0.47931474 0.0059544668
-0.47337246 -0.40876955 -0.12155842
-0.55950063 -0.35795677 -0.12155841
-0.39508045 -0.27606374 0.0059544593
-0.48120862 -0.22525096 0.0059544742
0.21532048 -0.12703189 0
0.21532048 -0.12703189 0
0.21532048 -0.12703189 0
0.21532048 -0.12703189 0
-0.21532048 0.12703189 0
-0.21532048 0.12703189 0
-0.21532048 0.12703189 0
-0.21532048 0.12703189 0
0.25838459 -0.15243828 0
0.1722564 -0.10162552 0
0.25838459 -0.15243828 0
0.1722564 -0.10162552 0
-0.1722564 0.10162552 0
-0.25838459 0.15243828 0
-0.1722564 0.10162552 0
-0.25838459 0.15243828 0
0.18991411 -0.170096 0
0.18991411 -0.170096 0
0.24072686 -0.08396779 0
0.24072686 -0.08396779 0
-0.24072686 0.08396779 0
-0.24072686 0.08396779 0
-0.18991411 0.170096 0
-0.18991411 0.170096 0
0.23297821 -0.19550239 0
0.14685002 -0.14468962 0
0.28379098 -0.10937418 0
0.19766277 -0.058561418 0
-0.19766277 0.058561418 0
-0.28379098 0.10937418 0
-0.14685002 0.14468962 0
-0.23297821 0.19550239 0
0.16450772 -0.2131601 0
0.16450772 -0.2131601 0
0.26613325 -0.040903695 0
0.26613325 -0.040903695 0
-0.26613325 0.040903695 0
-0.26613325 0.040903695 0
-0.16450772 0.2131601 0
-0.16450772 0.2131601 0
0.20757183 -0.23856649 0
0.12144364 -0.18775371 0
0.30919734 -0.066310085 0
0.22306916 -0.015497319 0
-0.22306916 0.015497319 0
-0.30919734 0.066310085 0
-0.12144364 0.18775371 0
-0.20757183 0.23856649 0
0.13910134 -0.25622419 0
0.13910134 -0.25622419 0
0.29153961 0.0021604002 0
0.29153961 0.0021604002 0
-0.29153961 -0.0021604002 0
-0.29153961 -0.0021604002 0
-0.13910134 0.25622419 0
-0.13910134 0.25622419 0
0.18216544 -0.28163058 0
0.096037254 -0.23081781 0
0.33460373 -0.02324599 0
0.24847554 0.027566776 0
-0.24847554 -0.027566776 0
-0.33460373 0.02324599 0
-0.096037254 0.23081781 0
-0.18216544 0.28163058 0
0.11369497 -0.29928827 0
0.11369497 -0.29928827 0
0.316946 0.045224503 0
0.316946 0.045224503 0
-0.316946 -0.045224503 0
-0.316946 -0.045224503 0
-0.11369497 0.29928827 0
-0.11369497 0.29928827 0
0.15675907 -0.32469469 0
0.070630878 -0.27388191 0
0.36001009 0.019818112 0
0.27388191 0.070630878 0
-0.27388191 -0.070630878 0
-0.36001009 -0.019818112 0
-0.070630878 0.27388191 0
-0.15675907 0.32469469 0
0.08828859 -0.34235239 0
0.08828859 -0.34235239 0
0.34235239 0.08828859 0
0.34235239 0.08828859 0
-0.34235239 -0.08828859 0
-0.34235239 -0.08828859 0
-0.08828859 0.34235239 0
-0.08828859 0.34235239 0
0.13135269 -0.36775875 0
0.045224503 -0.316946 0
0.38541648 0.0628822 0
0.29928827 0.11369497 0
-0.29928827 -0.11369497 0
-0.38541648 -0.0628822 0
-0.045224503 0.316946 0
-0.13135269 0.36775875 0
0.0628822 -0.38541648 0
0.0628822 -0.38541648 0
0.36775875 0.13135269 0
0.36775875 0.13135269 0
-0.36775875 -0.13135269 0
-0.36775875 -0.13135269 0
-0.0628822 0.38541648 0
-0.0628822 0.38541648 0
0.1059463 -0.41082287 0
0.019818112 -0.36001009 0
0.41082287 0.1059463 0
0.32469469 0.15675907 0
-0.32469469 -0.15675907 0
-0.41082287 -0.1059463 0
-0.019818112 0.36001009 0
-0.1059463 0.41082287 0
0.037475824 -0.4284806 0
0.037475824 -0.4284806 0
0.39316514 0.17441681 0
0.39316514 0.17441681 0
-0.39316514 -0.17441681 0
-0.39316514 -0.17441681 0
-0.037475824 0.4284806 0
-0.037475824 0.4284806 0
0.080539927 -0.45388699 0
-0.0055882633 -0.4030742 0
0.43622923 0.14901042 0
0.35010105 0.19982319 0
-0.35010105 -0.19982319 0
-0.43622923 -0.14901042 0
0.0055882633 0.4030742 0
-0.080539927 0.45388699 0
